<svg width="66" height="25" viewBox="0 0 66 25" fill="none" xmlns="http://www.w3.org/2000/svg">
<path d="M0.89825 24V23.456H1.28225C2.51958 23.456 3.13825 22.8267 3.13825 21.568V2.432C3.13825 1.17333 2.51958 0.543999 1.28225 0.543999H0.89825V-1.90735e-06H13.6983L14.1463 5.696H13.7623L13.6023 4.992C13.2396 3.56267 12.7703 2.54933 12.1943 1.952C11.6396 1.35467 10.7436 1.056 9.50625 1.056H5.73025V11.168H8.06625C9.00492 11.168 9.66625 10.8907 10.0503 10.336C10.4556 9.78133 10.7329 8.832 10.8823 7.488L10.9463 6.88H11.3623V16.384H10.9463L10.8823 15.808C10.7329 14.4853 10.4556 13.5573 10.0503 13.024C9.66625 12.4907 9.00492 12.224 8.06625 12.224H5.73025V22.944H9.76225C11.1916 22.944 12.2583 22.5813 12.9623 21.856C13.6663 21.1093 14.2316 19.8507 14.6583 18.08L14.8183 17.472H15.2343L14.3383 24H0.89825ZM19.7768 4.16C19.3288 4.16 18.9661 4.032 18.6888 3.776C18.4114 3.49867 18.2728 3.136 18.2728 2.688C18.2728 2.24 18.4114 1.87733 18.6888 1.6C18.9661 1.32266 19.3288 1.184 19.7768 1.184C20.2034 1.184 20.5554 1.32266 20.8328 1.6C21.1101 1.87733 21.2488 2.24 21.2488 2.688C21.2488 3.136 21.1101 3.49867 20.8328 3.776C20.5554 4.032 20.2034 4.16 19.7768 4.16ZM20.9608 22.112C20.9608 23.0293 21.4088 23.488 22.3048 23.488H22.6888V24H16.8648V23.488H17.2488C18.1448 23.488 18.5928 23.0293 18.5928 22.112V10.912H16.8968V10.528C18.2834 9.84533 19.5421 8.78933 20.6727 7.36H20.9608V22.112ZM28.1423 8H31.3743L31.1183 9.216H28.1743V20.64C28.1743 21.3653 28.2809 21.888 28.4943 22.208C28.7076 22.528 29.0596 22.688 29.5503 22.688C30.1689 22.688 30.7663 22.336 31.3423 21.632L31.6943 21.92C30.8409 23.52 29.7103 24.32 28.3023 24.32C26.6169 24.32 25.7743 23.1787 25.7743 20.896V9.216H24.3023V8.928C25.7956 7.79733 26.9689 6.41067 27.8223 4.768H28.1423V8ZM42.2735 24H32.8655V23.584L39.4255 8.704L35.8735 8.896C34.2948 8.96 33.5055 10.0053 33.5055 12.032V12.576H33.1215V8H41.9855V8.416L35.3935 23.296L39.4895 23.168C41.0682 23.1253 41.8575 22.0587 41.8575 19.968V19.424H42.2735V24ZM53.461 24H44.053V23.584L50.613 8.704L47.061 8.896C45.4823 8.96 44.693 10.0053 44.693 12.032V12.576H44.309V8H53.173V8.416L46.581 23.296L50.677 23.168C52.2557 23.1253 53.045 22.0587 53.045 19.968V19.424H53.461V24ZM61.1285 11.488C61.1285 10.5067 61.0005 9.81333 60.7445 9.408C60.5098 9.00267 60.1152 8.8 59.5605 8.8C58.0672 8.8 57.1605 10.0267 56.8405 12.48C56.7978 12.9067 56.7125 13.1947 56.5845 13.344C56.4565 13.472 56.2752 13.536 56.0405 13.536C55.6565 13.536 55.4645 13.312 55.4645 12.864C55.4645 11.8827 55.9658 10.752 56.9685 9.472C57.9925 8.17067 59.1445 7.52 60.4245 7.52C62.4725 7.52 63.4965 8.74667 63.4965 11.2V20.768C63.4965 21.472 63.5605 21.984 63.6885 22.304C63.8165 22.6027 64.0512 22.752 64.3925 22.752C64.7765 22.752 65.1605 22.4853 65.5445 21.952L65.8645 22.24C65.2032 23.7333 64.3392 24.48 63.2725 24.48C61.9925 24.48 61.2885 23.6053 61.1605 21.856C60.3712 22.8373 59.6992 23.52 59.1445 23.904C58.6112 24.288 58.0565 24.48 57.4805 24.48C56.7978 24.48 56.2752 24.256 55.9125 23.808C55.5498 23.3387 55.3685 22.6987 55.3685 21.888C55.3685 20.7147 55.7418 19.6907 56.4885 18.816C57.2352 17.92 58.3765 16.928 59.9125 15.84L61.1285 14.976V11.488ZM57.7365 20.928C57.7365 21.3973 57.8325 21.7707 58.0245 22.048C58.2165 22.304 58.4725 22.432 58.7925 22.432C59.4965 22.432 60.2752 22.0053 61.1285 21.152V15.776L60.6805 16.16C58.7178 17.7813 57.7365 19.3707 57.7365 20.928Z" fill="#E7E5FF"/>
</svg>
